PathFileType	4	(X/Y/Z)	/Users/itak/Documents/Research/Walk-IL/dataset/trc/00505_00183.trc
DataRate	CameraRate	NumFrames	NumMarkers	Units	OrigDataRate	OrigDataStartFrame	OrigNumFrames
100.000000	100.000000	4	53	mm	100.000000	46	369
Frame#	Time	RPSI			LPSI			L3			STRN			T10			C7			CLAV			RBAK			LBAK			LSHO			LUPA			LAEL			LAOL			LWTS			LWPS			LFRA			LIFD			LHPS			LHTS			RSHO			RUPA			RAEL			RAOL			RWTS			RWPS			RFRA			RIFD			RHTS			RHPS			RBHD			LFHD			RFHD			LBHD			LHIP			RHIP			RASI			LASI			LKNE			LTHI			LANK			LTIP			LTOE			LMT1			LMT5			LHEE			RKNE			RTHI			RANK			RTIP			RTOE			RMT1			RMT5			RHEE			
		X1	Y1	Z1	X2	Y2	Z2	X3	Y3	Z3	X4	Y4	Z4	X5	Y5	Z5	X6	Y6	Z6	X7	Y7	Z7	X8	Y8	Z8	X9	Y9	Z9	X10	Y10	Z10	X11	Y11	Z11	X12	Y12	Z12	X13	Y13	Z13	X14	Y14	Z14	X15	Y15	Z15	X16	Y16	Z16	X17	Y17	Z17	X18	Y18	Z18	X19	Y19	Z19	X20	Y20	Z20	X21	Y21	Z21	X22	Y22	Z22	X23	Y23	Z23	X24	Y24	Z24	X25	Y25	Z25	X26	Y26	Z26	X27	Y27	Z27	X28	Y28	Z28	X29	Y29	Z29	X30	Y30	Z30	X31	Y31	Z31	X32	Y32	Z32	X33	Y33	Z33	X34	Y34	Z34	X35	Y35	Z35	X36	Y36	Z36	X37	Y37	Z37	X38	Y38	Z38	X39	Y39	Z39	X40	Y40	Z40	X41	Y41	Z41	X42	Y42	Z42	X43	Y43	Z43	X44	Y44	Z44	X45	Y45	Z45	X46	Y46	Z46	X47	Y47	Z47	X48	Y48	Z48	X49	Y49	Z49	X50	Y50	Z50	X51	Y51	Z51	X52	Y52	Z52	X53	Y53	Z53	

47	0.46	-1150.795776367188	973.7047729492188	-447.6348571777344	-1081.499633789062	973.2503051757812	-549.9449462890625	-1127.426635742188	1031.939331054688	-507.6818542480469	-939.7836303710938	1198.628662109375	-399.8556823730469	-1145.982299804688	1137.945190429688	-512.9465942382812	-1110.751708984375	1368.331176757812	-487.6888732910156	-972.7977294921875	1293.185668945312	-416.9739379882812	-1190.442504882812	1244.833984375	-434.5649108886719	-1092.98583984375	1315.904174804688	-575.1307983398438	-975.6243896484375	1364.058959960938	-597.3858642578125	-957.3064575195312	1238.5283203125	-658.196044921875	-929.3556518554688	1028.88330078125	-674.9342041015625	-1024.216430664062	1016.97998046875	-645.6781616210938	-864.0691528320312	839.4498901367188	-596.079345703125	-915.1754150390625	804.0550537109375	-666.9771118164062	-911.146240234375	943.9508666992188	-667.0413818359375	-869.5911865234375	682.7026977539062	-583.806884765625	-895.370361328125	750.1774291992188	-651.8112182617188	-846.9213256835938	761.6438598632812	-608.9407958984375	-1131.8642578125	1361.979736328125	-330.941162109375	-1172.835815429688	1293.44140625	-288.010986328125	-1178.177490234375	1024.045166015625	-249.1616973876953	-1212.255981445312	1007.91259765625	-304.1244201660156	-1059.853149414062	828.9151611328125	-246.4892730712891	-1144.921752929688	802.614013671875	-225.1869049072266	-1173.6044921875	969.6192016601562	-241.6964263916016	-1056.24658203125	667.366943359375	-248.4541778564453	-1051.316162109375	733.3814697265625	-221.4884490966797	-1121.893432617188	730.2933349609375	-220.1656494140625	-1127.18115234375	1516.451904296875	-400.8488464355469	-956.6412353515625	1598.17236328125	-468.5780334472656	-1019.924499511719	1591.84716796875	-358.135009765625	-1060.70068359375	1518.012817382812	-545.6483764648438	-920.8895874023438	894.5146484375	-599.5133056640625	-1137.96435546875	868.382080078125	-292.9907836914062	-1014.47607421875	907.7311401367188	-287.1605529785156	-883.0545043945312	923.2233276367188	-490.7049865722656	-959.1549682617188	469.9497680664062	-582.1920166015625	-924.0153198242188	627.3431396484375	-584.99853515625	-1046.116333007812	48.20900344848633	-612.2770385742188	-989.2234497070312	325.6685485839844	-605.2918701171875	-914.5736083984375	38.89704895019531	-454.1310729980469	-996.3392333984375	42.32136917114258	-470.5204467773438	-947.754638671875	45.30992126464844	-560.135986328125	-1119.7802734375	42.63972091674805	-588.679443359375	-1143.112548828125	480.8018493652344	-323.8491821289062	-1125.0927734375	738.9359741210938	-276.3163757324219	-1161.237426757812	46.10103607177734	-384.6905517578125	-1137.182250976562	339.8713073730469	-339.37890625	-964.3663330078125	46.96794509887695	-333.7560729980469	-1006.349731445312	52.44416809082031	-396.1887817382812	-1067.556396484375	42.71778869628906	-319.6912841796875	-1185.350463867188	36.64597702026367	-451.2151184082031	
48	0.47	-1150.587646484375	973.728759765625	-447.5678100585938	-1081.1640625	973.11328125	-549.8248291015625	-1127.20556640625	1031.966430664062	-507.6068115234375	-939.50341796875	1198.569458007812	-399.7875061035156	-1145.757446289062	1137.976806640625	-512.8515014648438	-1110.440185546875	1368.314086914062	-487.566650390625	-972.5066528320312	1293.14892578125	-416.8732604980469	-1190.133911132812	1244.867065429688	-434.4884033203125	-1092.649780273438	1315.893310546875	-575.05908203125	-975.3558349609375	1364.039428710938	-597.2686767578125	-956.991943359375	1238.5126953125	-658.0759887695312	-929.052490234375	1028.905639648438	-674.8054809570312	-1023.943298339844	1016.953552246094	-645.6408081054688	-863.7872924804688	839.4057006835938	-595.9544677734375	-915.0023803710938	804.0361938476562	-666.9364624023438	-910.9075927734375	943.9698486328125	-666.9389038085938	-869.5963745117188	682.66845703125	-583.79248046875	-895.1133422851562	750.146240234375	-651.7263793945312	-846.8056640625	761.598388671875	-608.8884887695312	-1131.55908203125	1361.981811523438	-330.8103637695312	-1172.504150390625	1293.431396484375	-287.9065856933594	-1177.960205078125	1024.034545898438	-249.0983581542969	-1212.060913085938	1007.916015625	-304.0453491210938	-1059.69189453125	828.8712158203125	-246.4245300292969	-1144.771362304688	802.5945434570312	-225.1539611816406	-1173.4033203125	969.6112060546875	-241.6563720703125	-1056.132690429688	667.32177734375	-248.4135589599609	-1051.16162109375	733.3253784179688	-221.4585571289062	-1121.714599609375	730.2603149414062	-220.1665344238281	-1126.79541015625	1516.451904296875	-400.709228515625	-956.2688598632812	1598.1328125	-468.4020690917969	-1019.550659179688	1591.81689453125	-357.9585266113281	-1060.342163085938	1517.997802734375	-545.4830322265625	-920.6814575195312	894.5012817382812	-599.4615478515625	-1138.14892578125	868.590087890625	-293.1564331054688	-1014.26123046875	907.687744140625	-287.1384887695312	-882.8837890625	923.1647338867188	-490.6528930664062	-959.0452880859375	469.9245910644531	-582.0748291015625	-923.8197631835938	627.3160400390625	-584.9236450195312	-1046.127563476562	48.24304580688477	-612.2444458007812	-989.0498046875	325.6685180664062	-605.1980590820312	-914.5855712890625	38.88497924804688	-454.0858764648438	-996.3360595703125	42.30955123901367	-470.5050354003906	-947.7728271484375	45.36235427856445	-560.0950317382812	-1119.792114257812	42.62982559204102	-588.6734008789062	-1142.98095703125	480.7662048339844	-323.7543334960938	-1124.919067382812	738.9072875976562	-276.2871704101562	-1161.234497070312	46.103515625	-384.6917114257812	-1137.086303710938	339.8602905273438	-339.3208618164062	-964.3579711914062	46.96916961669922	-333.7376098632812	-1006.342651367188	52.45769500732422	-396.1757202148438	-1067.548583984375	42.71510314941406	-319.6877746582031	-1185.366821289062	36.63563919067383	-451.2138671875	
49	0.48	-1150.382080078125	973.7529907226562	-447.4939270019531	-1080.82666015625	972.9953002929688	-549.7072143554688	-1126.963012695312	1031.998413085938	-507.5497131347656	-939.2177734375	1198.511108398438	-399.7252807617188	-1145.537109375	1138.010620117188	-512.7424926757812	-1110.08837890625	1368.321044921875	-487.463134765625	-972.2054443359375	1293.10888671875	-416.7784423828125	-1189.821044921875	1244.903564453125	-434.4077758789062	-1092.320068359375	1315.881103515625	-574.951171875	-975.092041015625	1364.022094726562	-597.1560668945312	-956.6867065429688	1238.497436523438	-657.9612426757812	-928.7662353515625	1028.911987304688	-674.6820678710938	-1023.660034179688	1016.937316894531	-645.6113891601562	-863.517333984375	839.3645629882812	-595.8488159179688	-914.8115844726562	804.018798828125	-666.9022216796875	-910.6962890625	943.9854125976562	-666.8502807617188	-869.597900390625	682.6378173828125	-583.7791748046875	-894.8579711914062	750.1079711914062	-651.6507568359375	-846.7035522460938	761.5479125976562	-608.8446655273438	-1131.234985351562	1361.9912109375	-330.66943359375	-1172.159423828125	1293.42626953125	-287.7986450195312	-1177.7353515625	1024.0234375	-249.0421142578125	-1211.855346679688	1007.9228515625	-303.9701843261719	-1059.5302734375	828.8272094726562	-246.3693542480469	-1144.613159179688	802.577392578125	-225.1248931884766	-1173.196899414062	969.603515625	-241.6246490478516	-1056.032104492188	667.274169921875	-248.3632507324219	-1051.008056640625	733.2626342773438	-221.4358062744141	-1121.5400390625	730.227783203125	-220.1654205322266	-1126.392333984375	1516.4501953125	-400.5653381347656	-955.9022827148438	1598.09423828125	-468.2339782714844	-1019.148559570312	1591.789794921875	-357.7730712890625	-1059.9619140625	1517.986572265625	-545.3133544921875	-920.4630737304688	894.4805297851562	-599.4207763671875	-1138.222778320312	868.7274169921875	-293.2727355957031	-1014.0439453125	907.6473999023438	-287.1189270019531	-882.7245483398438	923.1101684570312	-490.6091003417969	-958.9038696289062	469.9047241210938	-581.9345092773438	-923.6060791015625	627.2877197265625	-584.84521484375	-1046.144775390625	48.28120422363281	-612.2106323242188	-988.8468017578125	325.6368103027344	-605.0718383789062	-914.6026000976562	38.87131881713867	-454.0307922363281	-996.3335571289062	42.29358291625977	-470.4827575683594	-947.8026123046875	45.42271041870117	-560.0560302734375	-1119.806518554688	42.61859893798828	-588.6676635742188	-1142.832885742188	480.7244567871094	-323.6484680175781	-1124.737426757812	738.875244140625	-276.2644653320312	-1161.232299804688	46.10295867919922	-384.6911926269531	-1136.981567382812	339.8476257324219	-339.2462768554688	-964.3396606445312	46.96728134155273	-333.71240234375	-1006.333740234375	52.4796028137207	-396.1570739746094	-1067.542846679688	42.71161651611328	-319.6840209960938	-1185.391479492188	36.62393569946289	-451.2102355957031	
50	0.49	-1150.175415039062	973.7783813476562	-447.412841796875	-1080.499145507812	972.9117431640625	-549.6007080078125	-1126.701904296875	1032.032958984375	-507.5112915039062	-938.926513671875	1198.45556640625	-399.6659240722656	-1145.313232421875	1138.046752929688	-512.6224975585938	-1109.696166992188	1368.355590820312	-487.3804626464844	-971.893310546875	1293.067016601562	-416.6879577636719	-1189.505615234375	1244.941040039062	-434.3191223144531	-1091.99609375	1315.871704101562	-574.800048828125	-974.8218383789062	1364.011352539062	-597.0467529296875	-956.39306640625	1238.484985351562	-657.8536376953125	-928.5025634765625	1028.903442382812	-674.5669555664062	-1023.370300292969	1016.928771972656	-645.5864868164062	-863.2630615234375	839.3262329101562	-595.7679443359375	-914.6013793945312	804.0020751953125	-666.8723754882812	-910.5078735351562	943.9948120117188	-666.7781982421875	-869.5865478515625	682.6116333007812	-583.7677612304688	-894.6092529296875	750.0648803710938	-651.5853881835938	-846.6008911132812	761.4977416992188	-608.8073120117188	-1130.890625	1362.0048828125	-330.5176696777344	-1171.802001953125	1293.427734375	-287.6855773925781	-1177.498779296875	1024.011840820312	-248.9927368164062	-1211.636108398438	1007.93310546875	-303.8965759277344	-1059.36279296875	828.78125	-246.3238525390625	-1144.445190429688	802.562255859375	-225.0991363525391	-1172.98193359375	969.5967407226562	-241.5988159179688	-1055.938354492188	667.2220458984375	-248.3102569580078	-1050.851928710938	733.1927490234375	-221.4241790771484	-1121.374633789062	730.1951293945312	-220.1583709716797	-1125.970703125	1516.450073242188	-400.4175720214844	-955.5310668945312	1598.055786132812	-468.0704650878906	-1018.723022460938	1591.766235351562	-357.5812072753906	-1059.560424804688	1517.984985351562	-545.1419677734375	-920.2482299804688	894.4569702148438	-599.397216796875	-1138.148681640625	868.7755126953125	-293.3252868652344	-1013.826782226562	907.6107177734375	-287.0990905761719	-882.5771484375	923.0604858398438	-490.5745239257812	-958.7261962890625	469.8904113769531	-581.7789306640625	-923.3724365234375	627.2606201171875	-584.7669677734375	-1046.165283203125	48.32141494750977	-612.1776733398438	-988.6129150390625	325.5674133300781	-604.9095458984375	-914.6245727539062	38.85683441162109	-453.9658813476562	-996.3324584960938	42.27303695678711	-470.4523620605469	-947.845947265625	45.48972320556641	-560.0218505859375	-1119.823852539062	42.60690307617188	-588.6619873046875	-1142.66552734375	480.6767578125	-323.5310974121094	-1124.549072265625	738.8407592773438	-276.2479553222656	-1161.23095703125	46.09853744506836	-384.6890563964844	-1136.868041992188	339.8331604003906	-339.15185546875	-964.3151245117188	46.9661865234375	-333.6759338378906	-1006.32421875	52.51336669921875	-396.1304931640625	-1067.540771484375	42.70796966552734	-319.6806335449219	-1185.423583984375	36.61017608642578	-451.2024841308594	
